<svg width="29" height="30" viewBox="0 0 29 30" fill="none" xmlns="http://www.w3.org/2000/svg">
<path d="M15.1191 7.0062C15.7858 7.3911 15.7858 8.35335 15.1191 8.73825L6.31081 13.8237C5.64414 14.2086 4.81081 13.7275 4.81081 12.9577L4.81081 2.78673C4.81081 2.01693 5.64414 1.5358 6.31081 1.9207L15.1191 7.0062Z" fill="black"/>
<path d="M15.1191 20.3265C15.7858 20.7114 15.7858 21.6737 15.1191 22.0586L6.31081 27.1441C5.64414 27.529 4.81081 27.0478 4.81081 26.278L4.81081 16.107C4.81081 15.3372 5.64414 14.8561 6.31081 15.241L15.1191 20.3265Z" fill="black"/>
<path d="M26.625 13.6664C27.2917 14.0513 27.2917 15.0135 26.625 15.3984L17.8167 20.4839C17.15 20.8688 16.3167 20.3877 16.3167 19.6179L16.3167 9.44688C16.3167 8.67708 17.15 8.19596 17.8167 8.58086L26.625 13.6664Z" fill="black"/>
</svg>
